<svg id="_x33_0" enable-background="new 0 0 64 64" height="512" viewBox="0 0 64 64" width="512" xmlns="http://www.w3.org/2000/svg" xmlns:xlink="http://www.w3.org/1999/xlink"><linearGradient id="SVGID_1_" gradientUnits="userSpaceOnUse" x1="32" x2="32" y1="63" y2="1"><stop offset="0" stop-color="#9f2fff"/><stop offset="1" stop-color="#0bb1d3"/></linearGradient><path d="m37 27v-2h2v2h6v-4h-6c-1.103 0-2-.897-2-2v-4c0-1.103.897-2 2-2h2v-2h2v2h2c1.103 0 2 .897 2 2v2h-2v-2h-6v4h6c1.103 0 2 .897 2 2v4c0 1.103-.897 2-2 2h-2v2h-2v-2h-2c-1.103 0-2-.897-2-2zm26-5c0 11.58-9.42 21-21 21-4.409 0-8.5-1.372-11.883-3.703l-3.203 3.203 1.499 1.499-17.169 17.242c-1.135 1.135-2.641 1.759-4.244 1.759s-3.109-.624-4.243-1.757-1.757-2.64-1.757-4.243.624-3.109 1.757-4.243l17.244-17.17 1.499 1.499 3.203-3.203c-2.331-3.383-3.703-7.474-3.703-11.883 0-11.58 9.42-21 21-21s21 9.42 21 21zm-33.354 4.017c.118-.007.235-.017.354-.017 1.557 0 3.021.606 4.121 1.707l2.172 2.172c1.101 1.1 1.707 2.564 1.707 4.121v.359c1.288.417 2.628.641 4 .641 7.168 0 13-5.832 13-13s-5.832-13-13-13-13 5.832-13 13c0 1.378.226 2.724.646 4.017zm-2.353 3.104-1.971 1.971c1.858 3.394 4.729 6.146 8.195 7.885l1.717-2.289c.494-.659.766-1.475.766-2.297v-.391c0-1.022-.398-1.984-1.121-2.707l-2.172-2.172c-1.446-1.446-3.968-1.446-5.414 0zm-11.89 13.868 5.609 5.609 1.582-1.589-5.602-5.602zm4.197 7.025-5.614-5.614-9.816 9.773c-1.558 1.558-1.558 4.096.001 5.656s4.098 1.56 5.657 0zm5.987-6.013-5.589-5.589-1.589 1.583 5.596 5.596zm2.925-5.927c-.935-.786-1.8-1.651-2.586-2.586l-3.012 3.012 2.586 2.586zm32.488-16.074c0-10.477-8.523-19-19-19s-19 8.523-19 19c0 2.537.509 4.956 1.416 7.17l1.463-1.463c.53-.53 1.146-.943 1.815-1.231-.452-1.444-.694-2.943-.694-4.476 0-8.271 6.729-15 15-15s15 6.729 15 15-6.729 15-15 15c-1.488 0-2.945-.226-4.35-.652-.196.549-.465 1.072-.816 1.539l-1.43 1.907c2.058.767 4.274 1.206 6.596 1.206 10.477 0 19-8.523 19-19zm-31 10c.256 0 .512-.098.707-.293.391-.391.391-1.024 0-1.414-.195-.195-.451-.293-.707-.293s-.512.098-.707.293c-.391.391-.391 1.024 0 1.414.195.195.451.293.707.293zm3 3c.256 0 .512-.098.707-.293.391-.391.391-1.024 0-1.414-.195-.195-.451-.293-.707-.293s-.512.098-.707.293c-.391.391-.391 1.024 0 1.414.195.195.451.293.707.293z" fill="url(#SVGID_1_)"/></svg>