<svg height="512" viewBox="0 0 64 64" width="512" xmlns="http://www.w3.org/2000/svg"><g id="Payment-2" data-name="Payment"><circle cx="32" cy="33" fill="#bddbff" r="2"/><path d="m54 55v4a2.006 2.006 0 0 1 -2 2h-40a2.006 2.006 0 0 1 -2-2v-4z" fill="#bddbff"/><path d="m47 27h-30v-13-11l3 4 2.99-4 3 4 3-4 3 4 3-4 3 4 3-4 3 4 3.01-4v11z" fill="#bddbff"/><g fill="#3d9ae2"><path d="m32 30a2.993 2.993 0 0 0 -1 5.816v5.184h2v-5.184a2.993 2.993 0 0 0 -1-5.816zm0 4a1 1 0 1 1 1-1 1 1 0 0 1 -1 1z"/><path d="m54 13h-6v-10a1 1 0 0 0 -1.8-.6l-2.2 2.935-2.211-2.935a1 1 0 0 0 -1.6 0l-2.2 2.933-2.2-2.933a1.036 1.036 0 0 0 -1.6 0l-2.2 2.933-2.189-2.933a1 1 0 0 0 -1.6 0l-2.2 2.933-2.2-2.933a1.036 1.036 0 0 0 -1.6 0l-2.2 2.933-2.2-2.933a1 1 0 0 0 -1.8.6v10h-6a1 1 0 0 0 -1 1v45a3 3 0 0 0 3 3h40a3 3 0 0 0 3-3v-45a1 1 0 0 0 -1-1zm-43 6.386 2.573 6.691a3.02 3.02 0 0 0 2.801 1.923h31.252a3.02 3.02 0 0 0 2.8-1.923l2.574-6.691v34.614h-42zm41.544-4.386-3.984 10.359a1 1 0 0 1 -.56.558v-10.917zm-33.344-7.4a1 1 0 0 0 1.6 0l2.2-2.933 2.2 2.933a1 1 0 0 0 1.6 0l2.2-2.933 2.2 2.933a1 1 0 0 0 1.6 0l2.2-2.933 2.2 2.933a1.036 1.036 0 0 0 1.6 0l2.2-2.934 2.2 2.934a1.037 1.037 0 0 0 1.6 0l1.2-1.6v20h-28v-20zm-3.2 18.317a1 1 0 0 1 -.56-.558l-3.984-10.359h4.544zm36 34.083h-40a1 1 0 0 1 -1-1v-3h42v3a1 1 0 0 1 -1 1z"/><path d="m33 20h-2a1 1 0 0 1 -1-1h-2a3 3 0 0 0 3 3v2h2v-2a3 3 0 0 0 0-6h-2a1 1 0 0 1 0-2h2a1 1 0 0 1 1 1h2a3 3 0 0 0 -3-3v-2h-2v2a3 3 0 0 0 0 6h2a1 1 0 0 1 0 2z"/><path d="m38 16h2v2h-2z"/><path d="m24 16h2v2h-2z"/></g></g></svg>