<svg id="Capa_1" enable-background="new 0 0 485 485" height="512" viewBox="0 0 485 485" width="512" xmlns="http://www.w3.org/2000/svg"><g><g><g><path d="m47.634 312.422c-4.143 0-7.5-4.693-7.5-10.482v-64.958c0-5.789 3.357-10.482 7.5-10.482s7.5 4.693 7.5 10.482v64.958c0 5.789-3.358 10.482-7.5 10.482z" fill="#c8c3ca"/></g></g><g><g><path d="m437.366 305.605c-4.143 0-7.5-4.521-7.5-10.098v-58.908c0-5.577 3.357-10.098 7.5-10.098s7.5 4.521 7.5 10.098v58.908c0 5.577-3.357 10.098-7.5 10.098z" fill="#c8c3ca"/></g></g><g><g><path d="m378.006 471.628h-82.704c-4.143 0-7.5-3.358-7.5-7.5s3.357-7.5 7.5-7.5h82.704c29.159 0 52.883-23.823 52.883-53.106v-26.79c0-4.142 3.357-7.5 7.5-7.5s7.5 3.358 7.5 7.5v26.79c0 37.554-30.453 68.106-67.883 68.106z" fill="#c8c3ca"/></g></g><g><g><path d="m78.935 386.263h-31.588c-8.839 0-16.005-7.166-16.005-16.005v-61.554c0-8.839 7.166-16.005 16.005-16.005h31.589l10 41.137z" fill="#ad7fdd"/></g></g><g><g><path d="m406.065 386.263h31.589c8.839 0 16.005-7.166 16.005-16.005v-61.554c0-8.839-7.166-16.005-16.005-16.005h-31.589l-10 46.782z" fill="#9d66d6"/></g></g><g><g><path d="m112.308 406.816h-23.012c-5.722 0-10.361-4.639-10.361-10.361v-113.948c0-5.722 4.639-10.361 10.361-10.361h23.012l10 65.997z" fill="#dbc92f"/></g></g><g><g><path d="m372.692 406.816h23.012c5.722 0 10.361-4.639 10.361-10.361v-113.948c0-5.722-4.639-10.361-10.361-10.361h-23.012l-10 67.335z" fill="#dbc92f"/></g></g><g><g><path d="m278.742 485h-72.484c-7.902 0-14.308-6.406-14.308-14.308v-14.225c0-7.902 6.406-14.309 14.308-14.309h72.484c7.902 0 14.308 6.406 14.308 14.309v14.225c.001 7.902-6.405 14.308-14.308 14.308z" fill="#b1abb4"/></g></g><g><g><path d="m88.733 170.628c10.528 0 20.203-5.865 24.993-15.241 23.93-46.838 72.667-78.982 128.775-78.982s104.844 32.144 128.774 78.982c4.79 9.375 14.465 15.241 24.993 15.241h20.07c-8.357-29.044-23.963-55.663-45.925-77.624-34.168-34.167-79.594-52.984-127.913-52.984s-93.745 18.816-127.912 52.983c-21.962 21.962-37.569 48.58-45.925 77.624h20.07z" fill="#c8c3ca"/></g></g><g><g><path d="m446.791 242.925h-18.851c-6.828 0-12.363-5.535-12.363-12.363v-12.233c0-95.67-76.917-174.485-172.586-174.752-95.66-.267-173.568 77.478-173.568 173.076v13.908c0 6.828-5.535 12.363-12.363 12.363h-18.851c-6.828 0-12.363-5.535-12.363-12.363v-13.908c0-57.87 22.536-112.277 63.457-153.197 40.92-40.92 95.326-63.456 153.197-63.456s112.277 22.536 153.198 63.457c40.921 40.92 63.456 95.327 63.456 153.197v13.908c0 6.828-5.535 12.363-12.363 12.363z" fill="#9d66d6"/></g></g><g><g><path d="m395.698 63.457c-40.921-40.921-95.327-63.457-153.199-63.457-5.029 0-10.03.181-15 .519 52.223 3.548 100.833 25.573 138.198 62.938 40.921 40.92 63.456 95.327 63.456 153.197v13.908c0 4.82-2.764 8.985-6.788 11.024 1.676.849 3.567 1.339 5.575 1.339h18.851c6.828 0 12.363-5.535 12.363-12.363v-13.908c0-57.871-22.536-112.277-63.456-153.197z" fill="#8858b9"/></g></g><g><g><path d="m155.621 414.417h-35.06c-4.558 0-8.253-3.695-8.253-8.253v-133.366c0-4.558 3.695-8.253 8.253-8.253h35.06c9.134 0 16.538 7.404 16.538 16.538v116.796c0 9.134-7.404 16.538-16.538 16.538z" fill="#766d78"/></g></g><g><g><path d="m329.379 414.417h35.06c4.558 0 8.253-3.695 8.253-8.253v-133.366c0-4.558-3.695-8.253-8.253-8.253h-35.06c-9.134 0-16.538 7.404-16.538 16.538v116.796c0 9.134 7.404 16.538 16.538 16.538z" fill="#766d78"/></g></g></g></svg>