<?xml version="1.0" encoding="iso-8859-1"?>
<!-- Generator: Adobe Illustrator 19.0.0, SVG Export Plug-In . SVG Version: 6.00 Build 0)  -->
<svg version="1.1" id="Capa_1" xmlns="http://www.w3.org/2000/svg" xmlns:xlink="http://www.w3.org/1999/xlink" x="0px" y="0px"
	 viewBox="0 0 512 512" style="enable-background:new 0 0 512 512;" xml:space="preserve">
<g>
	<path style="fill:#FFD93B;" d="M281.872,150.336c-0.096,0-0.16,0-0.24,0l0.144-19.328c0.032,0,0.064,0,0.064,0
		c10.464,0,23.984-19.504,33.872-33.76c3.152-4.544,6.224-8.96,9.184-12.896c28.224-37.376,65.952-63.52,90.272-62.496
		c8.448,0.4,15.28,4.176,19.216,10.608L417.936,42.56c-0.224-0.352-0.784-1.264-3.696-1.408
		C399.408,40.544,366.592,61.184,340.32,96c-2.816,3.728-5.728,7.92-8.72,12.256C317.92,127.984,302.416,150.336,281.872,150.336z"
		/>
	<path style="fill:#FFD93B;" d="M137.216,263.952c-9.632-12.416-23.12-21.52-37.424-31.136c-13.216-8.896-26.88-18.112-37.936-30.48
		c-29.68-33.28-34.592-87.344-11.936-131.472l17.184,8.816c-19.072,37.2-15.312,82.336,9.2,109.792
		c9.424,10.56,21.504,18.688,34.288,27.312c14.928,10.048,30.368,20.448,41.904,35.328L137.216,263.952z"/>
	<path style="fill:#FFD93B;" d="M385.776,500.976l-6.88-18.048c28.672-10.928,48.48-28.832,57.264-51.776
		c10.096-26.384,5.52-59.6-13.216-96.064c-8.672-16.832-21.712-29.712-34.304-42.16c-22.64-22.368-46.048-45.472-45.008-90.352
		l19.312,0.448c-0.864,36.544,17.728,54.896,39.264,76.16c13.696,13.52,27.84,27.504,37.92,47.072
		c21.344,41.488,26.224,80.16,14.08,111.824C443.376,466.288,419.712,488.048,385.776,500.976z"/>
</g>
<path style="fill:#E24B4B;" d="M256,0C119.376,0,8.704,110.672,8.704,247.296S119.376,494.592,256,494.592
	S503.296,383.92,503.296,247.296S392.624,0,256,0z M256,368.576c-66.928,0-121.12-54.336-121.12-121.264
	s54.192-121.12,121.12-121.12s121.264,54.192,121.264,121.12C377.28,314.224,322.928,368.576,256,368.576z"/>
<path style="fill:#D03F3F;" d="M410.88,54.56c24.96,38.72,39.36,84.8,39.36,134.4c0,137.92-111.68,249.6-249.6,249.6
	c-54.24,0-104.48-17.28-145.44-46.88C100,454.08,173.28,494.56,256,494.56c136.64,0,247.36-110.56,247.36-247.2
	C503.36,169.44,467.36,99.84,410.88,54.56z"/>
<g>
	<path style="fill:#E9EFF4;" d="M158.736,19.904l53.776,114.448c13.504-5.2,28.128-8.16,43.488-8.16
		c15.344,0,29.968,2.96,43.488,8.16l53.776-114.448C323.408,7.12,290.544,0,256,0S188.592,7.12,158.736,19.904z"/>
	<path style="fill:#E9EFF4;" d="M134.88,247.296c0-15.36,2.976-29.984,8.176-43.488L28.608,150.032
		c-12.784,29.856-19.904,62.72-19.904,97.264s7.12,67.408,19.904,97.264l114.432-53.776
		C137.856,277.264,134.88,262.64,134.88,247.296z"/>
	<path style="fill:#E9EFF4;" d="M353.264,474.688l-53.728-114.32C286,365.584,271.36,368.576,256,368.576
		c-15.376,0-30.016-2.992-43.552-8.208L158.72,474.704c29.856,12.784,62.72,19.904,97.264,19.904
		C290.544,494.592,323.408,487.472,353.264,474.688z"/>
	<path style="fill:#E9EFF4;" d="M377.28,247.296c0,15.36-2.976,30-8.208,43.536l114.32,53.728
		c12.784-29.856,19.904-62.72,19.904-97.264s-7.12-67.408-19.904-97.264L369.056,203.76
		C374.288,217.28,377.28,231.936,377.28,247.296z"/>
</g>
<g>
	<path style="fill:#FFD93B;" d="M281.632,150.336c-22.4-0.192-34.736-24.4-49.008-52.416c-22.48-44.096-45.744-89.712-107.28-70.08
		c-24.032,7.664-45.248,26.56-58.24,51.84l-17.168-8.816C65.232,41.04,90.56,18.656,119.456,9.44
		c77.232-24.64,107.92,35.68,130.384,79.712c10.96,21.472,21.296,41.776,31.952,41.856L281.632,150.336z"/>
	<path style="fill:#FFD93B;" d="M362.928,203.008l-19.312-0.448c1.008-43.024,39.872-105.36,60.304-132.304
		c0.992-1.328,2.16-2.784,3.408-4.32c5.632-7.008,14.144-17.6,10.608-23.36l16.448-10.112c10.672,17.344-3.52,35.024-12,45.568
		l-3.056,3.888C397.952,110.128,363.744,167.936,362.928,203.008z"/>
</g>
<g>
	<path style="fill:#D3D9DD;" d="M256,494.592c34.544,0,67.408-7.12,97.264-19.904l-31.68-67.424
		c-35.84,19.888-77.04,31.28-120.944,31.28c-8.208,0-16.304-0.528-24.32-1.296l-17.584,37.44
		C188.592,487.472,221.456,494.592,256,494.592z"/>
	<path style="fill:#D3D9DD;" d="M503.296,247.296c0-34.544-7.12-67.408-19.904-97.264l-34.304,16.112
		c0.688,7.52,1.152,15.104,1.152,22.816c0,45.344-12.256,87.728-33.36,124.352l66.512,31.248
		C496.176,314.704,503.296,281.84,503.296,247.296z"/>
</g>
<path style="fill:#FFD93B;" d="M316.224,512c-51.552,0-108.896-15.312-136-52.816c-21.728-30.096-22.208-66.848-22.656-102.384
	c-0.432-34.8-0.864-67.664-20.368-92.848l15.28-11.84c23.472,30.304,23.952,67.984,24.4,104.432
	c0.432,34.032,0.848,66.176,19.008,91.328c34.432,47.664,133.2,54,182.976,35.056l6.88,18.048
	C367.28,508.032,342.512,512,316.224,512z"/>
<path style="opacity:0.15;fill:#FFFFFF;enable-background:new    ;" d="M358.08,124.8c0,16.8-1.92,33.28-5.76,49.12
	c-21.92-28.96-56.96-47.68-96.32-47.68c-66.88,0-121.12,54.08-121.12,121.12c0,43.04,22.4,80.8,56.32,102.24
	C150.72,366.56,105.12,376,56.8,376c-4,0-8.16,0-12.16-0.32c-22.88-37.28-36-81.28-36-128.32C8.64,110.72,119.36,0,256,0
	c23.84,0,46.88,3.36,68.64,9.76C346.08,44.32,358.08,83.36,358.08,124.8z"/>
<g>
</g>
<g>
</g>
<g>
</g>
<g>
</g>
<g>
</g>
<g>
</g>
<g>
</g>
<g>
</g>
<g>
</g>
<g>
</g>
<g>
</g>
<g>
</g>
<g>
</g>
<g>
</g>
<g>
</g>
</svg>
