<svg height="486pt" viewBox="0 -14 486.26987 486" width="486pt" xmlns="http://www.w3.org/2000/svg" xmlns:xlink="http://www.w3.org/1999/xlink"><linearGradient id="a"><stop offset="0" stop-color="#00efd1"/><stop offset="1" stop-color="#00acea"/></linearGradient><linearGradient id="b" gradientTransform="matrix(1 0 0 -1 -12.865254 486.98782)" gradientUnits="userSpaceOnUse" x1="255.802" x2="255.802" xlink:href="#a" y1="506" y2="23.963"/><linearGradient id="c" gradientTransform="matrix(1 0 0 -1 -12.865254 486.98782)" gradientUnits="userSpaceOnUse" x1="256" x2="256" xlink:href="#a" y1="506" y2="23.963"/><linearGradient id="d" gradientTransform="matrix(1 0 0 -1 -12.865254 486.98782)" gradientUnits="userSpaceOnUse" x1="456.647" x2="456.647" xlink:href="#a" y1="506" y2="23.963"/><linearGradient id="e" gradientTransform="matrix(1 0 0 -1 -12.865254 486.98782)" gradientUnits="userSpaceOnUse" x1="256.028" x2="256.028" xlink:href="#a" y1="506" y2="23.963"/><linearGradient id="f" gradientTransform="matrix(1 0 0 -1 -12.865254 486.98782)" gradientUnits="userSpaceOnUse" x1="55.353" x2="55.353" xlink:href="#a" y1="506" y2="23.963"/><linearGradient id="g" gradientTransform="matrix(1 0 0 -1 -12.865254 486.98782)" gradientUnits="userSpaceOnUse" x1="397.884" x2="397.884" xlink:href="#a" y1="506" y2="23.963"/><linearGradient id="h" gradientTransform="matrix(1 0 0 -1 -12.865254 486.98782)" gradientUnits="userSpaceOnUse" x1="114.118" x2="114.118" xlink:href="#a" y1="506" y2="23.963"/><linearGradient id="i" gradientTransform="matrix(1 0 0 -1 -12.865254 486.98782)" gradientUnits="userSpaceOnUse" x1="114.124" x2="114.124" xlink:href="#a" y1="506" y2="23.963"/><path d="m323.523438 161.777344c-32.117188-31.789063-79.894532-41.777344-122.054688-25.511719s-70.855469 55.753906-73.300781 100.875c-2.445313 45.125 21.8125 87.480469 61.964843 108.207031v59.558594c-.164062 5.402344 4.082032 9.917969 9.484376 10.082031h41.304687c.402344 0 .800781.082031 1.210937.082031.414063 0 .816407-.082031 1.214844-.082031h43.128906c5.398438-.070312 9.722657-4.5 9.65625-9.902343 0-.058594 0-.117188 0-.175782v-59.238281c37.890626-19.832031 61.667969-59.035156 61.738282-101.800781.160156-30.890625-12.238282-60.519532-34.347656-82.09375zm-41.398438 168.597656c-3.589844 1.617188-5.921875 5.15625-5.992188 9.089844v55.523437h-24v-120h11c5.523438 0 10-4.476562 10-10 0-5.523437-4.476562-10-10-10h-41c-5.519531 0-10 4.476563-10 10 0 5.523438 4.480469 10 10 10h10v120h-22v-55.929687c-.070312-3.980469-2.457031-7.550782-6.105468-9.136719-42.90625-19.523437-64.925782-67.625-51.660156-112.855469 13.261718-45.234375 57.769531-73.828125 104.421874-67.089844 46.652344 6.738282 81.25 46.757813 81.171876 93.894532 0 36.949218-21.972657 70.90625-55.839844 86.507812zm0 0" fill="url(#b)"/><path d="m273.777344 437.988281h-61.285156c-5.523438 0-10 4.476563-10 10 0 5.523438 4.476562 10 10 10h61.285156c5.523437 0 10-4.476562 10-10 0-5.523437-4.476563-10-10-10zm0 0" fill="url(#c)"/><path d="m455.429688 208.378906c-3.914063-3.898437-10.246094-3.886718-14.144532.023438-3.855468 3.820312-3.890625 10.042968-.074218 13.902344l.101562.097656 10.757812 10.585937h-40.777343c-5.523438 0-10 4.476563-10 10 0 5.523438 4.476562 10 10 10h40.777343l-10.757812 10.863281c-2.871094 2.871094-3.734375 7.1875-2.195312 10.945313 1.542968 3.753906 5.191406 6.21875 9.253906 6.242187 2.644531.011719 5.183594-1.03125 7.058594-2.898437l27.898437-27.800781c3.910156-3.890625 3.921875-10.21875.03125-14.128906l-.03125-.027344zm0 0" fill="url(#d)"/><path d="m222.410156 45.09375 10.722656-10.761719v40.777344c0 5.523437 4.480469 10 10 10 5.523438 0 10-4.476563 10-10v-40.777344l10.726563 10.761719c3.882813 3.925781 10.214844 3.960938 14.140625.078125 3.929688-3.882813 3.964844-10.214844.078125-14.140625l-.054687-.054688-27.804688-27.902343c-3.898438-3.910157-10.230469-3.921875-14.144531-.023438l-.023438.023438-27.804687 27.902343c-3.875 3.914063-3.847656 10.226563.050781 14.113282 3.902344 3.886718 10.210937 3.890625 14.113281.003906zm0 0" fill="url(#e)"/><path d="m34.199219 252.988281h40.777343c5.523438 0 10-4.476562 10-10 0-5.523437-4.476562-10-10-10h-40.777343l10.757812-10.582031c3.910157-3.875 3.9375-10.183594.0625-14.089844-3.875-3.910156-10.183593-3.9375-14.089843-.0625l-.089844.089844-27.898438 27.824219c-3.914062 3.90625-3.921875 10.25-.015625 14.164062l.015625.015625 27.898438 27.808594c3.914062 3.898438 10.242187 3.890625 14.144531-.023438 3.898437-3.964843 3.886719-10.328124-.027344-14.28125zm0 0" fill="url(#f)"/><path d="m407.921875 358.988281h-.019531c-5.457032-.054687-9.925782 4.328125-9.984375 9.785157v.101562l.027343 15.125-28.832031-28.863281c-3.898437-3.90625-10.226562-3.914063-14.128906-.015625-3.90625 3.898437-3.914063 10.226562-.015625 14.128906l28.835938 28.800781-15.191407-.0625h-.019531c-5.515625-.058593-10.039062 4.367188-10.097656 9.882813-.058594 5.519531 4.367187 10.039062 9.882812 10.101562h.199219l39.394531.015625h.015625c5.460938.0625 9.9375-4.3125 10-9.773437 0-.046875 0-.101563 0-.144532l-.066406-39.246093c-.023437-5.453125-4.460937-9.859375-9.917969-9.835938zm0 0" fill="url(#g)"/><path d="m117.15625 355.105469-28.832031 28.832031.027343-15.0625c0-5.457031-4.425781-9.886719-9.882812-9.886719h-.121094c-5.460937-.0625-9.9375 4.316407-10 9.777344v.078125l-.066406 39.324219c-.003906 2.628906 1.054688 5.148437 2.929688 6.988281 1.886718 1.851562 4.429687 2.871094 7.070312 2.832031h39.410156c5.523438-.003906 9.996094-4.484375 9.992188-10.007812-.003906-5.523438-4.484375-9.996094-10.007813-9.992188h-.019531l-15.191406.058594 28.835937-28.816406c3.898438-3.90625 3.894531-10.234375-.007812-14.132813-3.90625-3.902344-10.234375-3.898437-14.136719.007813zm0 0" fill="url(#h)"/><path d="m362.039062 134.363281c2.65625.003907 5.199219-1.050781 7.074219-2.929687l28.832031-28.832032-.027343 15.277344c-.019531 5.542969 4.441406 10.058594 9.984375 10.109375h.019531c5.53125-.042969 9.996094-4.539062 10-10.074219l.066406-39.433593c.007813-2.730469-1.042969-5.355469-2.929687-7.328125-1.851563-1.941406-4.390625-3.078125-7.070313-3.164063h-.019531l-39.390625.28125c-3.53125-.046875-6.820313 1.796875-8.617187 4.839844-1.800782 3.039063-1.835938 6.808594-.089844 9.882813 1.742187 3.070312 4.992187 4.976562 8.527344 4.996093h.199218.015625l15.191407.222657-28.835938 28.957031c-2.851562 2.882812-3.703125 7.191406-2.160156 10.941406 1.542968 3.75 5.175781 6.210937 9.230468 6.253906zm0 0" fill="url(#g)"/><path d="m78.347656 127.988281h.019532c5.542968-.050781 10.003906-4.566406 9.984374-10.109375l-.027343-15.234375 28.832031 28.8125c3.910156 3.90625 10.246094 3.902344 14.152344-.007812 3.90625-3.914063 3.902344-10.25-.007813-14.15625l-28.835937-29.082031 15.191406-.222657h.019531c5.40625.113281 9.882813-4.175781 10-9.585937 0-.046875 0-.097656 0-.148438.015625-5.542968-4.445312-10.054687-9.984375-10.109375l-39.390625-.15625h-.019531c-5.566406.199219-9.984375 4.765625-10 10.339844l.070312 39.535156c-.003906 5.542969 4.453126 10.058594 9.996094 10.125zm0 0" fill="url(#i)"/></svg>