<?xml version="1.0" encoding="iso-8859-1"?>
<!-- Generator: Adobe Illustrator 19.0.0, SVG Export Plug-In . SVG Version: 6.00 Build 0)  -->
<svg version="1.1" id="Capa_1" xmlns="http://www.w3.org/2000/svg" xmlns:xlink="http://www.w3.org/1999/xlink" x="0px" y="0px"
	 viewBox="0 0 512 512" style="enable-background:new 0 0 512 512;" xml:space="preserve">
<g>
	
		<linearGradient id="SVGID_1_" gradientUnits="userSpaceOnUse" x1="19.4122" y1="606.7128" x2="-45.5928" y2="606.7128" gradientTransform="matrix(8.5333 0 0 -8.5333 369.1334 5433.2827)">
		<stop  offset="0" style="stop-color:#4761AC"/>
		<stop  offset="1" style="stop-color:#54C2EF"/>
	</linearGradient>
	<path style="fill:url(#SVGID_1_);" d="M42.667,375.434h196.702c4.617,61.03,57.839,106.761,118.869,102.144
		c54.613-4.13,98.014-47.539,102.144-102.144h8.951c23.552-0.026,42.641-19.115,42.667-42.667v-256
		c-0.026-23.552-19.115-42.641-42.667-42.667H42.667C19.115,34.126,0.026,53.216,0,76.768v256
		C0.026,356.32,19.115,375.409,42.667,375.434z M17.067,332.768v-128h280.226l-52.523,17.51c-3.482,1.161-5.837,4.42-5.837,8.09v128
		H42.667C28.527,358.368,17.067,346.907,17.067,332.768z M17.067,119.434h477.867v68.267H17.067V119.434z M443.733,366.901
		c0,51.84-42.027,93.867-93.867,93.867S256,418.741,256,366.901V236.52l93.867-31.292l93.867,31.292V366.901z M469.333,358.368
		H460.8v-128c0-3.669-2.355-6.929-5.837-8.09l-52.523-17.51h92.493v128C494.933,346.907,483.473,358.368,469.333,358.368z
		 M42.667,51.168h426.667c14.14,0,25.6,11.46,25.6,25.6v25.6H17.067v-25.6C17.067,62.628,28.527,51.168,42.667,51.168z"/>
	
		<linearGradient id="SVGID_2_" gradientUnits="userSpaceOnUse" x1="19.4122" y1="603.7166" x2="-45.5928" y2="603.7166" gradientTransform="matrix(8.5333 0 0 -8.5333 369.1334 5433.2827)">
		<stop  offset="0" style="stop-color:#4761AC"/>
		<stop  offset="1" style="stop-color:#54C2EF"/>
	</linearGradient>
	<path style="fill:url(#SVGID_2_);" d="M110.933,247.434H42.667c-4.71,0-8.533,3.823-8.533,8.533v51.2
		c0,4.71,3.823,8.533,8.533,8.533h68.267c4.71,0,8.533-3.823,8.533-8.533v-51.2C119.467,251.257,115.644,247.434,110.933,247.434z
		 M102.4,298.634H51.2v-34.133h51.2V298.634z"/>
	
		<linearGradient id="SVGID_3_" gradientUnits="userSpaceOnUse" x1="19.4122" y1="597.7165" x2="-45.5928" y2="597.7165" gradientTransform="matrix(8.5333 0 0 -8.5333 369.1334 5433.2827)">
		<stop  offset="0" style="stop-color:#4761AC"/>
		<stop  offset="1" style="stop-color:#54C2EF"/>
	</linearGradient>
	<path style="fill:url(#SVGID_3_);" d="M347.17,222.278l-68.267,22.75c-3.482,1.161-5.837,4.42-5.837,8.09v113.783
		c0,42.419,34.381,76.8,76.8,76.8s76.8-34.381,76.8-76.8V253.117c0-3.669-2.355-6.929-5.837-8.09l-68.267-22.75
		C350.814,221.689,348.919,221.689,347.17,222.278z M409.6,259.27v107.631c0,32.99-26.743,59.733-59.733,59.733
		s-59.733-26.743-59.733-59.733V259.27l59.733-19.908L409.6,259.27z"/>
	
		<linearGradient id="SVGID_4_" gradientUnits="userSpaceOnUse" x1="19.4122" y1="598.2106" x2="-45.5928" y2="598.2106" gradientTransform="matrix(8.5333 0 0 -8.5333 369.1334 5433.2827)">
		<stop  offset="0" style="stop-color:#4761AC"/>
		<stop  offset="1" style="stop-color:#54C2EF"/>
	</linearGradient>
	<path style="fill:url(#SVGID_4_);" d="M321.766,318.201c-3.388-3.277-8.789-3.183-12.066,0.205c-3.191,3.311-3.191,8.55,0,11.861
		l25.6,25.6c3.328,3.328,8.738,3.328,12.066,0l42.667-42.667c3.277-3.388,3.183-8.789-0.205-12.066
		c-3.311-3.191-8.55-3.191-11.861,0l-36.634,36.634L321.766,318.201z"/>
	
		<linearGradient id="SVGID_5_" gradientUnits="userSpaceOnUse" x1="19.4122" y1="603.7166" x2="-45.5928" y2="603.7166" gradientTransform="matrix(8.5333 0 0 -8.5333 369.1334 5433.2827)">
		<stop  offset="0" style="stop-color:#4761AC"/>
		<stop  offset="1" style="stop-color:#54C2EF"/>
	</linearGradient>
	<path style="fill:url(#SVGID_5_);" d="M170.667,247.434c-18.85,0-34.133,15.283-34.133,34.133s15.283,34.133,34.133,34.133
		s34.133-15.283,34.133-34.133S189.517,247.434,170.667,247.434z M170.667,298.634c-9.429,0-17.067-7.637-17.067-17.067
		s7.637-17.067,17.067-17.067c9.429,0,17.067,7.637,17.067,17.067S180.096,298.634,170.667,298.634z"/>
</g>
<g>
</g>
<g>
</g>
<g>
</g>
<g>
</g>
<g>
</g>
<g>
</g>
<g>
</g>
<g>
</g>
<g>
</g>
<g>
</g>
<g>
</g>
<g>
</g>
<g>
</g>
<g>
</g>
<g>
</g>
</svg>
